<svg width="16" height="16" viewBox="0 0 16 16" fill="none" xmlns="http://www.w3.org/2000/svg">
<rect width="16" height="16" fill="currentColor" fill-opacity="0.01"/>
<path fill-rule="evenodd" clip-rule="evenodd" d="M3.86667 8.00005C3.86667 8.66279 3.32942 9.20005 2.66667 9.20005C2.00393 9.20005 1.46667 8.66279 1.46667 8.00005C1.46667 7.33731 2.00393 6.80005 2.66667 6.80005C3.32942 6.80005 3.86667 7.33731 3.86667 8.00005ZM9.20001 8.00005C9.20001 8.66279 8.66275 9.20005 8.00001 9.20005C7.33727 9.20005 6.80001 8.66279 6.80001 8.00005C6.80001 7.33731 7.33727 6.80005 8.00001 6.80005C8.66275 6.80005 9.20001 7.33731 9.20001 8.00005ZM13.3333 9.20005C13.9961 9.20005 14.5333 8.66279 14.5333 8.00005C14.5333 7.33731 13.9961 6.80005 13.3333 6.80005C12.6706 6.80005 12.1333 7.33731 12.1333 8.00005C12.1333 8.66279 12.6706 9.20005 13.3333 9.20005Z" fill="currentColor" />
</svg>
